# xmcd CD database file
# Copyright (C) 1993-1998 Ti Kan
# 
# Track frame offsets:
#     180
#     14031
#     24631
#     34912
#     44652
#     57273
#     67665
#     79374
#     89554
#     99934
#     111601
#     124187
#     136917
# 
# Disc length: 1975 seconds
# 
# Revision: 1
# Processed by: cddbd v1.4b41PL1 Copyright (c) Steve Scherf et al.
# Submitted via: DiscPlay 4.0.4
# 
DISCID=b807b50d
DTITLE=Patsy Cline - Patsy Cline Critique Volume 1
DYEAR=1900
DGENRE=
TTITLE0=A Church, A Courtroom, and then Goodbye
TTITLE1=Got  A Lot of Rhythm In My Soul
TTITLE2=How can I face Tomorrow
TTITLE3=I'm Blue Again
TTITLE4=Just a Closer Walk with thee
TTITLE5=Lovesick Blues
TTITLE6=A Poor Man's Rose's
TTITLE7=Three Cigarettes in an Ashtray
TTITLE8=Walking Dream
TTITLE9=Walkin' After Midnight
TTITLE10=Fingerprints
TTITLE11=Yes I understand
TTITLE12=Just out of Reach
EXTD=
EXTT0=
EXTT1=
EXTT2=
EXTT3=
EXTT4=
EXTT5=
EXTT6=
EXTT7=
EXTT8=
EXTT9=
EXTT10=
EXTT11=
EXTT12=
PLAYORDER=
